<svg width="343" height="205" viewBox="0 0 343 205" fill="none" xmlns="http://www.w3.org/2000/svg">
<path d="M20.5188 192.747L46.4708 148.5H297.898L322.881 192.754C322.934 192.849 322.951 192.905 322.956 192.927C322.962 192.95 322.963 192.969 322.963 192.99C322.962 193.039 322.945 193.137 322.877 193.252C322.81 193.368 322.733 193.43 322.692 193.455C322.673 193.466 322.656 193.474 322.633 193.48C322.611 193.486 322.554 193.5 322.445 193.5H20.9501C20.8385 193.5 20.7804 193.486 20.7597 193.48C20.7369 193.474 20.7199 193.466 20.7023 193.455C20.6613 193.431 20.5841 193.367 20.5162 193.249C20.4484 193.13 20.4325 193.031 20.4319 192.983C20.4317 192.963 20.4337 192.944 20.4397 192.921C20.4452 192.901 20.4623 192.843 20.5188 192.747Z" stroke="#7E0069" stroke-width="23"/>
<path d="M59 11.5H285C289.694 11.5 293.5 15.3056 293.5 20V147.5H50.5V20C50.5 15.3056 54.3056 11.5 59 11.5Z" stroke="#7E0069" stroke-width="23"/>
<path d="M96.625 92.0795V80.0795L144.625 58.9432V72.75L111.761 85.9432L112.205 85.2273V86.9318L111.761 86.2159L144.625 99.4091V113.216L96.625 92.0795ZM189.455 40.9091L166.955 124.5H154.443L176.943 40.9091H189.455ZM247.281 92.0795L199.281 113.216V99.4091L232.145 86.2159L231.702 86.9318V85.2273L232.145 85.9432L199.281 72.75V58.9432L247.281 80.0795V92.0795Z" fill="#7E0069"/>
</svg>
