<svg width="343" height="207" viewBox="0 0 343 207" fill="none" xmlns="http://www.w3.org/2000/svg">
<path d="M18.6953 192.167L43.5655 156H300.851L324.837 192.24C327.037 195.564 324.653 200 320.667 200H22.8152C18.7891 200 16.414 195.484 18.6953 192.167Z" stroke="#7E0069" stroke-width="14"/>
<path d="M60 7H286C293.18 7 299 12.8203 299 20V152H47V20C47 12.8203 52.8203 7 60 7Z" stroke="#7E0069" stroke-width="14"/>
<path d="M97.625 92.0795V80.0795L145.625 58.9432V72.75L112.761 85.9432L113.205 85.2273V86.9318L112.761 86.2159L145.625 99.4091V113.216L97.625 92.0795ZM190.455 40.9091L167.955 124.5H155.443L177.943 40.9091H190.455ZM248.281 92.0795L200.281 113.216V99.4091L233.145 86.2159L232.702 86.9318V85.2273L233.145 85.9432L200.281 72.75V58.9432L248.281 80.0795V92.0795Z" fill="#7E0069"/>
</svg>
